# ProBuilder 4.5.2
# https://unity3d.com/unity/features/worldbuilding/probuilder
# 1/3/2024 3:20:38 PM

mtllib ./PrecipiceSceneryCurve.mtl
o PrecipiceSceneryCurve

g PrecipiceSceneryCurve
v 0 0 0
v 8.046627E-07 2.070552 -0.2725935
v 2 0 5.841255E-06
v 2.000001 2.070552 -0.2725877
v 6.437302E-06 1.552914 -2.204445
v 5.841255E-06 0 -2
v 2.000007 1.552914 -2.204439
v 2.000006 0 -1.999994
v 3.099442E-06 4 -1.071797
v 2.000003 4 -1.071791
v 8.106232E-06 3 -2.803848
v 2.000008 3 -2.803842
v 6.914139E-06 5.656854 -2.343146
v 2.000007 5.656854 -2.34314
v 1.096725E-05 4.24264 -3.75736
v 2.000011 4.24264 -3.757354
v 1.168251E-05 6.928204 -4
v 2.000012 6.928204 -3.999995
v 1.478195E-05 5.196153 -5
v 2.000015 5.196153 -4.999995
v 1.716614E-05 7.727407 -5.929448
v 2.000017 7.727407 -5.929442
v 1.859665E-05 5.795555 -6.447086
v 2.000019 5.795555 -6.447081
v 2.336502E-05 8 -8.000001
v 2.000024 8 -7.999995
v 2.336502E-05 6 -8.000001
v 2.000024 6 -7.999995

vt 0 0
vt 0 1
vt 1 0
vt 1 1

vn -2.895641E-06 0.1305262 0.9914448
vn 2.954736E-06 -0.1305261 -0.9914449
vn -2.712075E-06 0.3826835 0.9238795
vn 2.753375E-06 -0.3826836 -0.9238794
vn -2.317089E-06 0.6087614 0.7933533
vn 2.269802E-06 -0.6087616 -0.7933532
vn -1.81425E-06 0.7933533 0.6087615
vn 1.741681E-06 -0.7933531 -0.6087617
vn -1.094866E-06 0.9238796 0.3826833
vn 1.094866E-06 -0.9238796 -0.3826834
vn -3.734384E-07 0.9914449 0.1305262
vn 3.73438E-07 -0.9914449 -0.1305261
vn 1 4.691313E-08 2.980232E-06
vn -1 4.604577E-09 -2.916902E-06

usemtl bm_grid_blank1
f 3/3/1 4/4/1 2/2/1 1/1/1
f 7/3/2 8/4/2 6/2/2 5/1/2
f 4/3/3 10/4/3 9/2/3 2/1/3
f 12/3/4 7/4/4 5/2/4 11/1/4
f 10/3/5 14/4/5 13/2/5 9/1/5
f 16/3/6 12/4/6 11/2/6 15/1/6
f 14/3/7 18/4/7 17/2/7 13/1/7
f 20/3/8 16/4/8 15/2/8 19/1/8
f 18/3/9 22/4/9 21/2/9 17/1/9
f 24/3/10 20/4/10 19/2/10 23/1/10
f 22/3/11 26/4/11 25/2/11 21/1/11
f 28/3/12 24/4/12 23/2/12 27/1/12
f 8/3/13 7/4/13 4/2/13 3/1/13
f 5/3/14 6/4/14 1/2/14 2/1/14
f 7/3/13 12/4/13 10/2/13 4/1/13
f 11/3/14 5/4/14 2/2/14 9/1/14
f 12/3/13 16/4/13 14/2/13 10/1/13
f 15/3/14 11/4/14 9/2/14 13/1/14
f 16/3/13 20/4/13 18/2/13 14/1/13
f 19/3/14 15/4/14 13/2/14 17/1/14
f 20/3/13 24/4/13 22/2/13 18/1/13
f 23/3/14 19/4/14 17/2/14 21/1/14
f 24/3/13 28/4/13 26/2/13 22/1/13
f 27/3/14 23/4/14 21/2/14 25/1/14

