# ProBuilder 4.5.2
# https://unity3d.com/unity/features/worldbuilding/probuilder
# 2/5/2024 8:27:48 PM

mtllib ./DeterminationRaceTrimCurve.mtl
o DeterminationRaceTrimCurve

g DeterminationRaceTrimCurve
v 0 0 0
v 2.222033E-07 0.08518738 -0.6470474
v -0.5 1.579523E-06 0
v -0.4999998 0.08518898 -0.6470474
v 1.757286E-06 0.5681499 -0.5176364
v 1.549721E-06 0.5 1.460314E-06
v -0.4999983 0.5681515 -0.5176364
v -0.4999985 0.5000015 1.430511E-06
v 9.685755E-07 0.3349402 -1.249999
v -0.499999 0.3349417 -1.249999
v 2.324581E-06 0.7679521 -0.9999977
v -0.4999977 0.7679536 -0.9999977
v 2.159609E-06 0.7322381 -1.767765
v -0.4999979 0.7322396 -1.767765
v 3.253566E-06 1.085791 -1.41421
v -0.4999967 1.085792 -1.41421
v 3.804859E-06 1.250006 -2.16506
v -0.4999962 1.250008 -2.16506
v 4.545924E-06 1.500005 -1.732046
v -0.4999955 1.500007 -1.732046
v 5.578112E-06 1.852959 -2.414809
v -0.4999944 1.852961 -2.414809
v 6.083736E-06 1.982367 -1.931846
v -0.4999939 1.982369 -1.931846
v 7.480383E-06 2.500007 -2.499993
v -0.4999925 2.500009 -2.499993
v 7.510185E-06 2.500006 -1.999993
v -0.4999925 2.500007 -1.999993
v 6.5 -5.066413E-07 4.768372E-07
v 6.5 0.08518642 -0.6470485
v 6 1.549719E-06 4.768372E-07
v 6 0.08518845 -0.6470485
v 6.5 0.5681491 -0.5176353
v 6.5 0.4999995 4.768372E-07
v 6 0.5681511 -0.5176353
v 6 0.5000015 4.768372E-07
v 6.5 0.3349394 -1.25
v 6 0.3349414 -1.25
v 6.5 0.7679514 -0.9999957
v 6 0.7679535 -0.9999957
v 6.5 0.7322372 -1.767765
v 6 0.7322392 -1.767765
v 6.5 1.08579 -1.414211
v 6 1.085792 -1.414211
v 6.5 1.250006 -2.165061
v 6 1.250007 -2.165061
v 6.500008 1.500004 -1.732048
v 6.000008 1.500006 -1.732048
v 6.500008 1.852959 -2.41481
v 6.000008 1.85296 -2.41481
v 6.500008 1.982367 -1.931846
v 6.000008 1.982368 -1.931846
v 6.500008 2.500007 -2.499992
v 6.000008 2.500008 -2.499992
v 6.500008 2.500005 -1.999992
v 6.000008 2.500007 -1.999992

vt 0 0
vt 0 1
vt 1 0
vt 1 1

vn -3.132019E-06 -0.9914445 -0.1305292
vn 3.191114E-06 0.9914445 0.1305291
vn -2.973642E-06 -0.9238784 -0.3826862
vn 2.863507E-06 0.9238784 0.3826861
vn -2.458947E-06 -0.7933517 -0.6087636
vn 2.458947E-06 0.7933515 0.6087638
vn -1.886813E-06 -0.6087591 -0.7933552
vn 1.886814E-06 0.6087593 0.793355
vn -1.277333E-06 -0.3826804 -0.9238808
vn 9.658261E-07 0.3826807 0.9238807
vn -4.35669E-07 -0.1305234 -0.9914452
vn 3.734306E-07 0.1305235 0.9914452
vn -1 3.099442E-06 8.564616E-08
vn 1 0 0

usemtl bm_edge_white
f 3/3/1 4/4/1 2/2/1 1/1/1
f 7/3/2 8/4/2 6/2/2 5/1/2
f 4/3/3 10/4/3 9/2/3 2/1/3
f 12/3/4 7/4/4 5/2/4 11/1/4
f 10/3/5 14/4/5 13/2/5 9/1/5
f 16/3/6 12/4/6 11/2/6 15/1/6
f 14/3/7 18/4/7 17/2/7 13/1/7
f 20/3/8 16/4/8 15/2/8 19/1/8
f 18/3/9 22/4/9 21/2/9 17/1/9
f 24/3/10 20/4/10 19/2/10 23/1/10
f 22/3/11 26/4/11 25/2/11 21/1/11
f 28/3/12 24/4/12 23/2/12 27/1/12
f 8/3/13 7/4/13 4/2/13 3/1/13
f 7/3/13 12/4/13 10/2/13 4/1/13
f 12/3/13 16/4/13 14/2/13 10/1/13
f 16/3/13 20/4/13 18/2/13 14/1/13
f 20/3/13 24/4/13 22/2/13 18/1/13
f 24/3/13 28/4/13 26/2/13 22/1/13
f 31/3/1 32/4/1 30/2/1 29/1/1
f 35/3/2 36/4/2 34/2/2 33/1/2
f 32/3/3 38/4/3 37/2/3 30/1/3
f 40/3/4 35/4/4 33/2/4 39/1/4
f 38/3/5 42/4/5 41/2/5 37/1/5
f 44/3/6 40/4/6 39/2/6 43/1/6
f 42/3/7 46/4/7 45/2/7 41/1/7
f 48/3/8 44/4/8 43/2/8 47/1/8
f 46/3/9 50/4/9 49/2/9 45/1/9
f 52/3/10 48/4/10 47/2/10 51/1/10
f 50/3/11 54/4/11 53/2/11 49/1/11
f 56/3/12 52/4/12 51/2/12 55/1/12
f 33/3/14 34/4/14 29/2/14 30/1/14
f 39/3/14 33/4/14 30/2/14 37/1/14
f 43/3/14 39/4/14 37/2/14 41/1/14
f 47/3/14 43/4/14 41/2/14 45/1/14
f 51/3/14 47/4/14 45/2/14 49/1/14
f 55/3/14 51/4/14 49/2/14 53/1/14

