# ProBuilder 4.5.2
# https://unity3d.com/unity/features/worldbuilding/probuilder
# 2/14/2024 11:15:10 PM

mtllib ./VioletteTrimArch.mtl
o VioletteTrimArch

g VioletteTrimArch
v 0 0 0.5
v 0 0 0
v 0.04803681 0.4877258 0
v 0.04803681 0.4877258 0.5
v 0.5384295 0.3901806 0.5
v 0.5384295 0.3901806 0
v 0.5 0 0
v 0.5 0 0.5
v 0.1903012 0.9567087 0
v 0.1903012 0.9567087 0.5
v 0.652241 0.7653669 0.5
v 0.652241 0.7653669 0
v 0.4213259 1.388926 0
v 0.4213259 1.388926 0.5
v 0.8370608 1.11114 0.5
v 0.8370608 1.11114 0
v 0.732233 1.767767 0
v 0.732233 1.767767 0.5
v 1.085786 1.414214 0.5
v 1.085786 1.414214 0
v 1.111074 2.078674 0
v 1.111074 2.078674 0.5
v 1.38886 1.662939 0.5
v 1.38886 1.662939 0
v 1.543291 2.309699 0
v 1.543291 2.309699 0.5
v 1.734633 1.847759 0.5
v 1.734633 1.847759 0
v 2.012274 2.451963 0
v 2.012274 2.451963 0.5
v 2.109819 1.961571 0.5
v 2.109819 1.961571 0
v 2.5 2.5 0
v 2.5 2.5 0.5
v 2.5 2 0.5
v 2.5 2 0
v 2.987726 2.451963 0
v 2.987726 2.451963 0.5
v 2.890181 1.961571 0.5
v 2.890181 1.961571 0
v 3.456708 2.309699 0
v 3.456708 2.309699 0.5
v 3.265367 1.847759 0.5
v 3.265367 1.847759 0
v 3.888926 2.078674 0
v 3.888926 2.078674 0.5
v 3.61114 1.662939 0.5
v 3.61114 1.662939 0
v 4.267767 1.767767 0
v 4.267767 1.767767 0.5
v 3.914214 1.414214 0.5
v 3.914214 1.414214 0
v 4.578674 1.388925 0
v 4.578674 1.388925 0.5
v 4.162939 1.11114 0.5
v 4.162939 1.11114 0
v 4.809699 0.9567087 0
v 4.809699 0.9567087 0.5
v 4.347759 0.765367 0.5
v 4.347759 0.765367 0
v 4.951963 0.4877258 0
v 4.951963 0.4877258 0.5
v 4.461571 0.3901806 0.5
v 4.461571 0.3901806 0
v 5 -2.185569E-07 0
v 5 -2.185569E-07 0.5
v 4.5 -1.748456E-07 0.5
v 4.5 -1.748456E-07 0

vt 1 0
vt 0 0
vt 0 1
vt 1 1

vn -0.9951847 0.09801716 0
vn -0.9807853 0.1950903 0
vn 0.9807853 -0.1950904 0
vn 0.9951847 -0.09801731 0
vn -0.9238796 0.3826832 0
vn 0.9238794 -0.3826836 0
vn -0.8314696 0.5555702 0
vn 0.8314701 -0.5555695 0
vn -0.7071068 0.7071068 0
vn 0.7071066 -0.7071069 0
vn -0.5555707 0.8314694 0
vn 0.5555696 -0.8314701 0
vn -0.3826831 0.9238796 0
vn 0.3826846 -0.923879 0
vn -0.19509 0.9807854 0
vn 0.1950904 -0.9807853 0
vn 0 1 0
vn 0 -1 0
vn 0.1950903 0.9807853 0
vn -0.1950904 -0.9807853 0
vn 0.3826829 0.9238797 0
vn -0.3826846 -0.923879 0
vn 0.5555702 0.8314697 0
vn -0.5555696 -0.83147 0
vn 0.7071074 0.7071062 0
vn -0.7071067 -0.7071069 0
vn 0.8314695 0.5555704 0
vn -0.8314702 -0.5555694 0
vn 0.9238794 0.3826836 0
vn -0.923879 -0.3826846 0
vn 0.9807854 0.19509 0
vn -0.9807853 -0.1950906 0
vn 0.9951847 0.09801761 0
vn -0.9951849 -0.09801545 0
vn 0 0 -1

usemtl bm_edge_white
f 4/4/2 3/3/2 2/2/1 1/1/1
f 8/4/4 7/3/4 6/2/3 5/1/3
f 10/4/5 9/3/5 3/2/2 4/1/2
f 5/4/3 6/3/3 12/2/6 11/1/6
f 14/4/7 13/3/7 9/2/5 10/1/5
f 11/4/6 12/3/6 16/2/8 15/1/8
f 18/4/9 17/3/9 13/2/7 14/1/7
f 15/4/8 16/3/8 20/2/10 19/1/10
f 22/4/11 21/3/11 17/2/9 18/1/9
f 19/4/10 20/3/10 24/2/12 23/1/12
f 26/4/13 25/3/13 21/2/11 22/1/11
f 23/4/12 24/3/12 28/2/14 27/1/14
f 30/4/15 29/3/15 25/2/13 26/1/13
f 27/4/14 28/3/14 32/2/16 31/1/16
f 34/4/17 33/3/17 29/2/15 30/1/15
f 31/4/16 32/3/16 36/2/18 35/1/18
f 38/4/19 37/3/19 33/2/17 34/1/17
f 35/4/18 36/3/18 40/2/20 39/1/20
f 42/4/21 41/3/21 37/2/19 38/1/19
f 39/4/20 40/3/20 44/2/22 43/1/22
f 46/4/23 45/3/23 41/2/21 42/1/21
f 43/4/22 44/3/22 48/2/24 47/1/24
f 50/4/25 49/3/25 45/2/23 46/1/23
f 47/4/24 48/3/24 52/2/26 51/1/26
f 54/4/27 53/3/27 49/2/25 50/1/25
f 51/4/26 52/3/26 56/2/28 55/1/28
f 58/4/29 57/3/29 53/2/27 54/1/27
f 55/4/28 56/3/28 60/2/30 59/1/30
f 62/4/31 61/3/31 57/2/29 58/1/29
f 59/4/30 60/3/30 64/2/32 63/1/32
f 66/4/33 65/3/33 61/2/31 62/1/31
f 63/4/32 64/3/32 68/2/34 67/1/34
f 7/4/35 2/3/35 3/2/35 6/1/35
f 6/4/35 3/3/35 9/2/35 12/1/35
f 12/4/35 9/3/35 13/2/35 16/1/35
f 16/4/35 13/3/35 17/2/35 20/1/35
f 20/4/35 17/3/35 21/2/35 24/1/35
f 24/4/35 21/3/35 25/2/35 28/1/35
f 28/4/35 25/3/35 29/2/35 32/1/35
f 32/4/35 29/3/35 33/2/35 36/1/35
f 36/4/35 33/3/35 37/2/35 40/1/35
f 40/4/35 37/3/35 41/2/35 44/1/35
f 44/4/35 41/3/35 45/2/35 48/1/35
f 48/4/35 45/3/35 49/2/35 52/1/35
f 52/4/35 49/3/35 53/2/35 56/1/35
f 56/4/35 53/3/35 57/2/35 60/1/35
f 60/4/35 57/3/35 61/2/35 64/1/35
f 64/4/35 61/3/35 65/2/35 68/1/35

