# ProBuilder 4.5.2
# https://unity3d.com/unity/features/worldbuilding/probuilder
# 4/29/2024 11:56:28 AM

mtllib ./WallRiderTrimWallCurve.mtl
o WallRiderTrimWallCurve

g WallRiderTrimWallCurve
v 0 0 0
v 0.03129911 1.847744E-06 -0.6371114
v 1.490116E-08 0.5 1.460314E-06
v 0.03129913 0.5000018 -0.63711
v 0.5288916 1.728535E-06 -0.5881028
v 0.5 -1.490116E-08 -4.396483E-14
v 0.5288916 0.5000017 -0.5881014
v 0.5 0.5 1.460314E-06
v 0.124896 3.695488E-06 -1.268087
v 0.1248961 0.5000037 -1.268086
v 0.6152887 3.457069E-06 -1.170542
v 0.6152887 0.5000035 -1.170541
v 0.2798877 5.483627E-06 -1.88685
v 0.2798877 0.5000055 -1.886849
v 0.758358 5.125999E-06 -1.741708
v 0.758358 0.5000051 -1.741707
v 0.4947834 7.152557E-06 -2.487442
v 0.4947834 0.5000072 -2.487441
v 0.9567232 6.67572E-06 -2.296101
v 0.9567232 0.5000067 -2.296099
v 0.7675114 9.059906E-06 -3.064079
v 0.7675114 0.5000091 -3.064077
v 1.208472 8.34465E-06 -2.82838
v 1.208472 0.5000083 -2.828379
v 1.095448 1.049042E-05 -3.611207
v 1.095448 0.5000105 -3.611205
v 1.511182 9.775162E-06 -3.333421
v 1.511182 0.5000098 -3.33342
v 1.475432 1.192093E-05 -4.123556
v 1.475432 0.5000119 -4.123555
v 1.861937 1.120567E-05 -3.80636
v 1.861937 0.5000112 -3.806358
v 1.903806 1.335144E-05 -4.596194
v 1.903806 0.5000134 -4.596192
v 2.25736 1.239777E-05 -4.24264
v 2.25736 0.5000124 -4.242639
v 2.376444 1.478195E-05 -5.024568
v 2.376444 0.5000148 -5.024566
v 2.69364 1.335144E-05 -4.638062
v 2.69364 0.5000134 -4.638061
v 2.888793 1.573563E-05 -5.404552
v 2.888793 0.5000157 -5.404551
v 3.166579 1.478195E-05 -4.988818
v 3.166579 0.5000148 -4.988816
v 3.435921 1.66893E-05 -5.732488
v 3.435921 0.5000167 -5.732487
v 3.671619 1.525879E-05 -5.291527
v 3.671619 0.5000153 -5.291526
v 4.012558 1.764297E-05 -6.005217
v 4.012558 0.5000176 -6.005215
v 4.203899 1.621246E-05 -5.543277
v 4.203899 0.5000162 -5.543275
v 4.61315 1.811981E-05 -6.220112
v 4.61315 0.5000181 -6.220111
v 4.758292 1.66893E-05 -5.741642
v 4.758292 0.5000167 -5.741641
v 5.231913 1.859665E-05 -6.375104
v 5.231913 0.5000186 -6.375103
v 5.329458 1.716614E-05 -5.884711
v 5.329458 0.5000172 -5.88471
v 5.862889 1.907349E-05 -6.468701
v 5.862889 0.5000191 -6.468699
v 5.911897 1.764297E-05 -5.971108
v 5.911897 0.5000176 -5.971107
v 6.5 1.907349E-05 -6.5
v 6.5 0.5000191 -6.499999
v 6.5 1.764297E-05 -6
v 6.5 0.5000176 -5.999999

vt 0 0
vt 0 1
vt 1 0
vt 1 1

vn -0.9987954 1.730741E-07 -0.04906742
vn 0.9987955 -1.403834E-07 0.04906755
vn -0.9891764 4.492813E-07 -0.1467313
vn 0.9891763 -4.198015E-07 0.1467313
vn -0.9700314 7.24079E-07 -0.2429795
vn 0.9700314 -6.951701E-07 0.2429796
vn -0.9415439 9.638513E-07 -0.3368904
vn 0.9415439 -9.638513E-07 0.3368904
vn -0.9039897 1.223243E-06 -0.4275543
vn 0.9039897 -1.223243E-06 0.4275544
vn -0.8577284 1.470861E-06 -0.5141031
vn 0.8577285 -1.47086E-06 0.5141028
vn -0.8032075 1.704309E-06 -0.5956993
vn 0.8032078 -1.704309E-06 0.5956991
vn -0.7409508 1.921347E-06 -0.6715594
vn 0.7409506 -1.921347E-06 0.6715596
vn -0.671559 2.119878E-06 -0.7409511
vn 0.6715592 -2.119878E-06 0.740951
vn -0.5956998 2.297994E-06 -0.8032072
vn 0.5956996 -2.297995E-06 0.8032073
vn -0.5141029 2.453981E-06 -0.8577285
vn 0.5141024 -2.453982E-06 0.8577288
vn -0.4275544 2.586335E-06 -0.9039896
vn 0.4275549 -2.586334E-06 0.9039894
vn -0.3368907 2.693778E-06 -0.9415438
vn 0.3368903 -2.693779E-06 0.9415439
vn -0.2429795 2.775282E-06 -0.9700314
vn 0.2429798 -2.775282E-06 0.9700314
vn -0.1467312 2.830056E-06 -0.9891764
vn 0.1467312 -2.830056E-06 0.9891765
vn -0.0490674 2.857577E-06 -0.9987954
vn 0.04906751 -2.857577E-06 0.9987955
vn 0 1 2.90019E-06

usemtl bm_edge_white
f 3/3/1 4/4/1 2/2/1 1/1/1
f 7/3/2 8/4/2 6/2/2 5/1/2
f 4/3/3 10/4/3 9/2/3 2/1/3
f 12/3/4 7/4/4 5/2/4 11/1/4
f 10/3/5 14/4/5 13/2/5 9/1/5
f 16/3/6 12/4/6 11/2/6 15/1/6
f 14/3/7 18/4/7 17/2/7 13/1/7
f 20/3/8 16/4/8 15/2/8 19/1/8
f 18/3/9 22/4/9 21/2/9 17/1/9
f 24/3/10 20/4/10 19/2/10 23/1/10
f 22/3/11 26/4/11 25/2/11 21/1/11
f 28/3/12 24/4/12 23/2/12 27/1/12
f 26/3/13 30/4/13 29/2/13 25/1/13
f 32/3/14 28/4/14 27/2/14 31/1/14
f 30/3/15 34/4/15 33/2/15 29/1/15
f 36/3/16 32/4/16 31/2/16 35/1/16
f 34/3/17 38/4/17 37/2/17 33/1/17
f 40/3/18 36/4/18 35/2/18 39/1/18
f 38/3/19 42/4/19 41/2/19 37/1/19
f 44/3/20 40/4/20 39/2/20 43/1/20
f 42/3/21 46/4/21 45/2/21 41/1/21
f 48/3/22 44/4/22 43/2/22 47/1/22
f 46/3/23 50/4/23 49/2/23 45/1/23
f 52/3/24 48/4/24 47/2/24 51/1/24
f 50/3/25 54/4/25 53/2/25 49/1/25
f 56/3/26 52/4/26 51/2/26 55/1/26
f 54/3/27 58/4/27 57/2/27 53/1/27
f 60/3/28 56/4/28 55/2/28 59/1/28
f 58/3/29 62/4/29 61/2/29 57/1/29
f 64/3/30 60/4/30 59/2/30 63/1/30
f 62/3/31 66/4/31 65/2/31 61/1/31
f 68/3/32 64/4/32 63/2/32 67/1/32
f 8/3/33 7/4/33 4/2/33 3/1/33
f 7/3/33 12/4/33 10/2/33 4/1/33
f 12/3/33 16/4/33 14/2/33 10/1/33
f 16/3/33 20/4/33 18/2/33 14/1/33
f 20/3/33 24/4/33 22/2/33 18/1/33
f 24/3/33 28/4/33 26/2/33 22/1/33
f 28/3/33 32/4/33 30/2/33 26/1/33
f 32/3/33 36/4/33 34/2/33 30/1/33
f 36/3/33 40/4/33 38/2/33 34/1/33
f 40/3/33 44/4/33 42/2/33 38/1/33
f 44/3/33 48/4/33 46/2/33 42/1/33
f 48/3/33 52/4/33 50/2/33 46/1/33
f 52/3/33 56/4/33 54/2/33 50/1/33
f 56/3/33 60/4/33 58/2/33 54/1/33
f 60/3/33 64/4/33 62/2/33 58/1/33
f 64/3/33 68/4/33 66/2/33 62/1/33

